<mxfile host="app.diagrams.net" agent="Mozilla/5.0 (Macintosh; Intel Mac OS X 10.15; rv:130.0) Gecko/20100101 Firefox/130.0" version="24.7.17" pages="2">
  <diagram name="container-diagram" id="yWYnb-tHpZIV-JxUO04H">
    <mxGraphModel dx="1390" dy="779" grid="1" gridSize="10" guides="1" tooltips="1" connect="1" arrows="1" fold="1" page="1" pageScale="1" pageWidth="850" pageHeight="1100" math="0" shadow="0">
      <root>
        <mxCell id="0" />
        <mxCell id="1" parent="0" />
        <mxCell id="ven7OCAWEYGcHoB-KmMM-1" value="" style="rounded=0;whiteSpace=wrap;html=1;dashed=1;fontSize=9;" vertex="1" parent="1">
          <mxGeometry x="650" y="360" width="130" height="100" as="geometry" />
        </mxCell>
        <mxCell id="ven7OCAWEYGcHoB-KmMM-4" value="" style="rounded=0;whiteSpace=wrap;html=1;dashed=1;fontSize=9;" vertex="1" parent="1">
          <mxGeometry x="237" y="680" width="133" height="130" as="geometry" />
        </mxCell>
        <mxCell id="ven7OCAWEYGcHoB-KmMM-5" value="" style="rounded=0;whiteSpace=wrap;html=1;dashed=1;fontSize=9;" vertex="1" parent="1">
          <mxGeometry x="650" y="240" width="150" height="110" as="geometry" />
        </mxCell>
        <mxCell id="ven7OCAWEYGcHoB-KmMM-6" value="" style="rounded=0;whiteSpace=wrap;html=1;dashed=1;fontSize=9;" vertex="1" parent="1">
          <mxGeometry x="234.13" y="240" width="375.87" height="410" as="geometry" />
        </mxCell>
        <mxCell id="ven7OCAWEYGcHoB-KmMM-7" value="" style="rounded=0;whiteSpace=wrap;html=1;dashed=1;fontSize=9;" vertex="1" parent="1">
          <mxGeometry x="60" y="680" width="120" height="130" as="geometry" />
        </mxCell>
        <mxCell id="ven7OCAWEYGcHoB-KmMM-8" value="&lt;font style=&quot;font-size: 18px&quot;&gt;Container Diagram for Check In Experience - OH Appointments&lt;/font&gt;" style="text;html=1;strokeColor=none;fillColor=none;align=left;verticalAlign=middle;whiteSpace=wrap;rounded=0;dashed=1;" vertex="1" parent="1">
          <mxGeometry x="80" y="53" width="540" height="40" as="geometry" />
        </mxCell>
        <mxCell id="ven7OCAWEYGcHoB-KmMM-9" value="Check In Experience&amp;nbsp;" style="text;html=1;strokeColor=none;fillColor=none;align=center;verticalAlign=middle;whiteSpace=wrap;rounded=0;dashed=1;fontSize=9;" vertex="1" parent="1">
          <mxGeometry x="340" y="240" width="169.87" height="20" as="geometry" />
        </mxCell>
        <object placeholders="1" c4Name="Veteran" c4Type="Person" c4Description="A Veteran with an &#xa;appointment to &#xa;file a claim for" label="&lt;b style=&quot;font-size: 9px;&quot;&gt;%c4Name%&lt;/b&gt;&lt;div style=&quot;font-size: 9px;&quot;&gt;[%c4Type%]&lt;/div&gt;&lt;br style=&quot;font-size: 9px;&quot;&gt;&lt;div style=&quot;font-size: 9px;&quot;&gt;%c4Description%&lt;/div&gt;" id="ven7OCAWEYGcHoB-KmMM-10">
          <mxCell style="html=1;dashed=0;whitespace=wrap;fillColor=#08427b;strokeColor=none;fontColor=#ffffff;shape=mxgraph.c4.person;align=center;metaEdit=1;points=[[0.5,0,0],[1,0.5,0],[1,0.75,0],[0.75,1,0],[0.5,1,0],[0.25,1,0],[0,0.75,0],[0,0.5,0]];metaData={&quot;c4Type&quot;:{&quot;editable&quot;:false}};fontSize=9;" vertex="1" parent="1">
            <mxGeometry x="69" y="220" width="96" height="110" as="geometry" />
          </mxCell>
        </object>
        <object placeholders="1" c4Name="VETS-WEBSITE" c4Type="Container" c4Technology="reactJS" c4Description="Provides all of the digital check in functionality to Veterans via web browser at va.gov" label="&lt;b style=&quot;font-size: 9px;&quot;&gt;%c4Name%&lt;/b&gt;&lt;div style=&quot;font-size: 9px;&quot;&gt;[%c4Type%: %c4Technology%]&lt;/div&gt;&lt;br style=&quot;font-size: 9px;&quot;&gt;&lt;div style=&quot;font-size: 9px;&quot;&gt;%c4Description%&lt;/div&gt;" id="ven7OCAWEYGcHoB-KmMM-11">
          <mxCell style="rounded=1;whiteSpace=wrap;html=1;labelBackgroundColor=none;fillColor=#85BBF0;fontColor=#ffffff;align=center;arcSize=10;strokeColor=#78A8D8;metaEdit=1;metaData={&quot;c4Type&quot;:{&quot;editable&quot;:false}};points=[[0.25,0,0],[0.5,0,0],[0.75,0,0],[1,0.25,0],[1,0.5,0],[1,0.75,0],[0.75,1,0],[0.5,1,0],[0.25,1,0],[0,0.75,0],[0,0.5,0],[0,0.25,0]];fontSize=9;" vertex="1" parent="1">
            <mxGeometry x="264" y="250" width="116" height="80" as="geometry" />
          </mxCell>
        </object>
        <object placeholders="1" c4Name="VETS-API" c4Type="Container" c4Technology="Ruby / Rails / Postgres" c4Description="Provides digital check in functionality via RESTful API" label="&lt;b style=&quot;font-size: 9px;&quot;&gt;%c4Name%&lt;/b&gt;&lt;div style=&quot;font-size: 9px;&quot;&gt;[%c4Type%: %c4Technology%]&lt;/div&gt;&lt;br style=&quot;font-size: 9px;&quot;&gt;&lt;div style=&quot;font-size: 9px;&quot;&gt;%c4Description%&lt;/div&gt;" id="ven7OCAWEYGcHoB-KmMM-12">
          <mxCell style="rounded=1;whiteSpace=wrap;html=1;labelBackgroundColor=none;fillColor=#85BBF0;fontColor=#ffffff;align=center;arcSize=10;strokeColor=#78A8D8;metaEdit=1;metaData={&quot;c4Type&quot;:{&quot;editable&quot;:false}};points=[[0.25,0,0],[0.5,0,0],[0.75,0,0],[1,0.25,0],[1,0.5,0],[1,0.75,0],[0.75,1,0],[0.5,1,0],[0.25,1,0],[0,0.75,0],[0,0.5,0],[0,0.25,0]];fontSize=9;" vertex="1" parent="1">
            <mxGeometry x="465" y="250" width="116" height="80" as="geometry" />
          </mxCell>
        </object>
        <object placeholders="1" c4Type="Relationship" c4Technology="https" c4Description="uses" label="&lt;div style=&quot;text-align: left; font-size: 9px;&quot;&gt;&lt;div style=&quot;text-align: center; font-size: 9px;&quot;&gt;&lt;b style=&quot;font-size: 9px;&quot;&gt;%c4Description%&lt;/b&gt;&lt;/div&gt;&lt;div style=&quot;text-align: center; font-size: 9px;&quot;&gt;[%c4Technology%]&lt;/div&gt;&lt;/div&gt;" id="ven7OCAWEYGcHoB-KmMM-13">
          <mxCell style="edgeStyle=none;rounded=0;html=1;entryX=0;entryY=0.5;jettySize=auto;orthogonalLoop=1;strokeColor=#707070;strokeWidth=2;fontColor=#707070;jumpStyle=none;dashed=1;metaEdit=1;metaData={&quot;c4Type&quot;:{&quot;editable&quot;:false}};exitX=1;exitY=0.5;exitDx=0;exitDy=0;exitPerimeter=0;entryDx=0;entryDy=0;entryPerimeter=0;fontSize=9;" edge="1" parent="1" source="ven7OCAWEYGcHoB-KmMM-11" target="ven7OCAWEYGcHoB-KmMM-12">
            <mxGeometry width="160" relative="1" as="geometry">
              <mxPoint x="381" y="487" as="sourcePoint" />
              <mxPoint x="541" y="487" as="targetPoint" />
            </mxGeometry>
          </mxCell>
        </object>
        <object placeholders="1" c4Name="CHIP API" c4Type="Container" c4Technology="AWS Lambdas/nodeJS" c4Description="API Integration layer used by Veteran for accessing Vista &amp; OH appointments" label="&lt;b style=&quot;font-size: 9px;&quot;&gt;%c4Name%&lt;/b&gt;&lt;div style=&quot;font-size: 9px;&quot;&gt;[%c4Type%: %c4Technology%]&lt;/div&gt;&lt;br style=&quot;font-size: 9px;&quot;&gt;&lt;div style=&quot;font-size: 9px;&quot;&gt;%c4Description%&lt;/div&gt;" link="data:page/id,hKUxfsoxaP-PS7_2_EE4" id="ven7OCAWEYGcHoB-KmMM-14">
          <mxCell style="rounded=1;whiteSpace=wrap;html=1;labelBackgroundColor=none;fillColor=#85BBF0;fontColor=#ffffff;align=center;arcSize=10;strokeColor=#78A8D8;metaEdit=1;metaData={&quot;c4Type&quot;:{&quot;editable&quot;:false}};points=[[0.25,0,0],[0.5,0,0],[0.75,0,0],[1,0.25,0],[1,0.5,0],[1,0.75,0],[0.75,1,0],[0.5,1,0],[0.25,1,0],[0,0.75,0],[0,0.5,0],[0,0.25,0]];fontSize=9;" vertex="1" parent="1">
            <mxGeometry x="262" y="520" width="120" height="80" as="geometry" />
          </mxCell>
        </object>
        <object placeholders="1" c4Name="LoROTA API" c4Type="Container" c4Technology="AWS Lambdas/nodeJS" c4Description="Provides secure temporary cache to share data between applications" label="&lt;b style=&quot;font-size: 9px;&quot;&gt;%c4Name%&lt;/b&gt;&lt;div style=&quot;font-size: 9px;&quot;&gt;[%c4Type%: %c4Technology%]&lt;/div&gt;&lt;br style=&quot;font-size: 9px;&quot;&gt;&lt;div style=&quot;font-size: 9px;&quot;&gt;%c4Description%&lt;/div&gt;" id="ven7OCAWEYGcHoB-KmMM-15">
          <mxCell style="rounded=1;whiteSpace=wrap;html=1;labelBackgroundColor=none;fillColor=#85BBF0;fontColor=#ffffff;align=center;arcSize=10;strokeColor=#78A8D8;metaEdit=1;metaData={&quot;c4Type&quot;:{&quot;editable&quot;:false}};points=[[0.25,0,0],[0.5,0,0],[0.75,0,0],[1,0.25,0],[1,0.5,0],[1,0.75,0],[0.75,1,0],[0.5,1,0],[0.25,1,0],[0,0.75,0],[0,0.5,0],[0,0.25,0]];fontSize=9;" vertex="1" parent="1">
            <mxGeometry x="450.0000000000001" y="390" width="116" height="80" as="geometry" />
          </mxCell>
        </object>
        <object placeholders="1" c4Type="Relationship" c4Technology="https" c4Description="uses" label="&lt;div style=&quot;text-align: left; font-size: 9px;&quot;&gt;&lt;div style=&quot;text-align: center; font-size: 9px;&quot;&gt;&lt;b style=&quot;font-size: 9px;&quot;&gt;%c4Description%&lt;/b&gt;&lt;/div&gt;&lt;div style=&quot;text-align: center; font-size: 9px;&quot;&gt;[%c4Technology%]&lt;/div&gt;&lt;/div&gt;" id="ven7OCAWEYGcHoB-KmMM-16">
          <mxCell style="edgeStyle=none;rounded=0;html=1;jettySize=auto;orthogonalLoop=1;strokeColor=#707070;strokeWidth=2;fontColor=#707070;jumpStyle=none;dashed=1;metaEdit=1;metaData={&quot;c4Type&quot;:{&quot;editable&quot;:false}};fontSize=9;exitX=0.409;exitY=1.069;exitDx=0;exitDy=0;exitPerimeter=0;" edge="1" parent="1" source="ven7OCAWEYGcHoB-KmMM-12" target="ven7OCAWEYGcHoB-KmMM-15">
            <mxGeometry width="160" relative="1" as="geometry">
              <mxPoint x="538" y="330" as="sourcePoint" />
              <mxPoint x="529.25" y="443" as="targetPoint" />
            </mxGeometry>
          </mxCell>
        </object>
        <object placeholders="1" c4Type="Relationship" c4Technology="https" c4Description="uses" label="&lt;div style=&quot;text-align: left; font-size: 9px;&quot;&gt;&lt;div style=&quot;text-align: center; font-size: 9px;&quot;&gt;&lt;b style=&quot;font-size: 9px;&quot;&gt;%c4Description%&lt;/b&gt;&lt;/div&gt;&lt;div style=&quot;text-align: center; font-size: 9px;&quot;&gt;[%c4Technology%]&lt;/div&gt;&lt;/div&gt;" id="ven7OCAWEYGcHoB-KmMM-17">
          <mxCell style="edgeStyle=none;rounded=0;html=1;jettySize=auto;orthogonalLoop=1;strokeColor=#707070;strokeWidth=2;fontColor=#707070;jumpStyle=none;dashed=1;metaEdit=1;metaData={&quot;c4Type&quot;:{&quot;editable&quot;:false}};exitX=0.992;exitY=0.063;exitDx=0;exitDy=0;exitPerimeter=0;fontSize=9;entryX=0;entryY=0.5;entryDx=0;entryDy=0;entryPerimeter=0;" edge="1" parent="1" source="ven7OCAWEYGcHoB-KmMM-14" target="ven7OCAWEYGcHoB-KmMM-15">
            <mxGeometry width="160" relative="1" as="geometry">
              <mxPoint x="711" y="397" as="sourcePoint" />
              <mxPoint x="702" y="330" as="targetPoint" />
            </mxGeometry>
          </mxCell>
        </object>
        <object placeholders="1" c4Type="Relationship" c4Technology="https" c4Description="uses" label="&lt;div style=&quot;text-align: left; font-size: 9px;&quot;&gt;&lt;div style=&quot;text-align: center; font-size: 9px;&quot;&gt;&lt;b style=&quot;font-size: 9px;&quot;&gt;%c4Description%&lt;/b&gt;&lt;/div&gt;&lt;div style=&quot;text-align: center; font-size: 9px;&quot;&gt;[%c4Technology%]&lt;/div&gt;&lt;/div&gt;" id="ven7OCAWEYGcHoB-KmMM-18">
          <mxCell style="edgeStyle=none;rounded=0;html=1;jettySize=auto;orthogonalLoop=1;strokeColor=#707070;strokeWidth=2;fontColor=#707070;jumpStyle=none;dashed=1;metaEdit=1;metaData={&quot;c4Type&quot;:{&quot;editable&quot;:false}};exitX=0.992;exitY=0.62;exitDx=0;exitDy=0;exitPerimeter=0;fontSize=9;" edge="1" parent="1" target="ven7OCAWEYGcHoB-KmMM-11">
            <mxGeometry x="-0.25" width="160" relative="1" as="geometry">
              <mxPoint x="164.23199999999997" y="291.20000000000005" as="sourcePoint" />
              <mxPoint x="327.75" y="267" as="targetPoint" />
              <mxPoint as="offset" />
            </mxGeometry>
          </mxCell>
        </object>
        <object placeholders="1" c4Type="Database" c4Technology="DynamoDB" c4Description="LoROTA Data Store" label="%c4Type%&lt;div style=&quot;font-size: 9px;&quot;&gt;[Container:&amp;nbsp;%c4Technology%]&lt;/div&gt;&lt;br style=&quot;font-size: 9px;&quot;&gt;&lt;div style=&quot;font-size: 9px;&quot;&gt;%c4Description%&lt;/div&gt;" id="ven7OCAWEYGcHoB-KmMM-19">
          <mxCell style="shape=cylinder;whiteSpace=wrap;html=1;boundedLbl=1;rounded=0;labelBackgroundColor=none;fillColor=#438DD5;fontSize=9;fontColor=#ffffff;align=center;strokeColor=#3C7FC0;metaEdit=1;points=[[0.5,0,0],[1,0.25,0],[1,0.5,0],[1,0.75,0],[0.5,1,0],[0,0.75,0],[0,0.5,0],[0,0.25,0]];metaData={&quot;c4Type&quot;:{&quot;editable&quot;:false}};" vertex="1" parent="1">
            <mxGeometry x="455" y="500" width="106" height="74" as="geometry" />
          </mxCell>
        </object>
        <object placeholders="1" c4Type="Relationship" c4Technology="dynamoAPI" c4Description="crud" label="&lt;div style=&quot;text-align: left; font-size: 9px;&quot;&gt;&lt;div style=&quot;text-align: center; font-size: 9px;&quot;&gt;&lt;b style=&quot;font-size: 9px;&quot;&gt;%c4Description%&lt;/b&gt;&lt;/div&gt;&lt;div style=&quot;text-align: center; font-size: 9px;&quot;&gt;[%c4Technology%]&lt;/div&gt;&lt;/div&gt;" id="ven7OCAWEYGcHoB-KmMM-20">
          <mxCell style="edgeStyle=none;rounded=0;html=1;jettySize=auto;orthogonalLoop=1;strokeColor=#707070;strokeWidth=2;fontColor=#707070;jumpStyle=none;dashed=1;metaEdit=1;metaData={&quot;c4Type&quot;:{&quot;editable&quot;:false}};exitX=0.5;exitY=1;exitDx=0;exitDy=0;exitPerimeter=0;fontSize=9;" edge="1" parent="1" source="ven7OCAWEYGcHoB-KmMM-15" target="ven7OCAWEYGcHoB-KmMM-19">
            <mxGeometry x="-0.1758" y="1" width="160" relative="1" as="geometry">
              <mxPoint x="381" y="587" as="sourcePoint" />
              <mxPoint x="541" y="587" as="targetPoint" />
              <mxPoint as="offset" />
            </mxGeometry>
          </mxCell>
        </object>
        <object placeholders="1" c4Name="VeTEXT" c4Type="Container" c4Technology="J2EE" c4Description="VA SMS management solution" label="&lt;b style=&quot;font-size: 9px;&quot;&gt;%c4Name%&lt;/b&gt;&lt;div style=&quot;font-size: 9px;&quot;&gt;[%c4Type%: %c4Technology%]&lt;/div&gt;&lt;br style=&quot;font-size: 9px;&quot;&gt;&lt;div style=&quot;font-size: 9px;&quot;&gt;%c4Description%&lt;/div&gt;" id="ven7OCAWEYGcHoB-KmMM-22">
          <mxCell style="rounded=1;whiteSpace=wrap;html=1;labelBackgroundColor=none;fillColor=#85BBF0;fontColor=#ffffff;align=center;arcSize=10;strokeColor=#78A8D8;metaEdit=1;metaData={&quot;c4Type&quot;:{&quot;editable&quot;:false}};points=[[0.25,0,0],[0.5,0,0],[0.75,0,0],[1,0.25,0],[1,0.5,0],[1,0.75,0],[0.75,1,0],[0.5,1,0],[0.25,1,0],[0,0.75,0],[0,0.5,0],[0,0.25,0]];fontSize=9;" vertex="1" parent="1">
            <mxGeometry x="64" y="705" width="110" height="80" as="geometry" />
          </mxCell>
        </object>
        <object placeholders="1" c4Type="Relationship" c4Technology="SMS" c4Description="sends/receives" label="&lt;div style=&quot;text-align: left; font-size: 9px;&quot;&gt;&lt;div style=&quot;text-align: center; font-size: 9px;&quot;&gt;&lt;b style=&quot;font-size: 9px;&quot;&gt;%c4Description%&lt;/b&gt;&lt;/div&gt;&lt;div style=&quot;text-align: center; font-size: 9px;&quot;&gt;[%c4Technology%]&lt;/div&gt;&lt;/div&gt;" id="ven7OCAWEYGcHoB-KmMM-23">
          <mxCell style="edgeStyle=none;rounded=0;html=1;entryX=0.5;entryY=0;jettySize=auto;orthogonalLoop=1;strokeColor=#707070;strokeWidth=2;fontColor=#707070;jumpStyle=none;dashed=1;metaEdit=1;metaData={&quot;c4Type&quot;:{&quot;editable&quot;:false}};exitX=0.5;exitY=1;exitDx=0;exitDy=0;exitPerimeter=0;entryDx=0;entryDy=0;entryPerimeter=0;startArrow=classic;startFill=1;fontSize=9;" edge="1" parent="1" target="ven7OCAWEYGcHoB-KmMM-27">
            <mxGeometry x="-0.0159" y="-4" width="160" relative="1" as="geometry">
              <mxPoint x="117" y="333" as="sourcePoint" />
              <mxPoint x="184" y="707" as="targetPoint" />
              <mxPoint x="1" as="offset" />
            </mxGeometry>
          </mxCell>
        </object>
        <object placeholders="1" c4Type="Relationship" c4Technology="https" c4Description="uses" label="&lt;div style=&quot;text-align: left; font-size: 9px;&quot;&gt;&lt;div style=&quot;text-align: center; font-size: 9px;&quot;&gt;&lt;b style=&quot;font-size: 9px;&quot;&gt;%c4Description%&lt;/b&gt;&lt;/div&gt;&lt;div style=&quot;text-align: center; font-size: 9px;&quot;&gt;[%c4Technology%]&lt;/div&gt;&lt;/div&gt;" id="ven7OCAWEYGcHoB-KmMM-24">
          <mxCell style="edgeStyle=none;rounded=0;html=1;jettySize=auto;orthogonalLoop=1;strokeColor=#707070;strokeWidth=2;fontColor=#707070;jumpStyle=none;dashed=1;metaEdit=1;metaData={&quot;c4Type&quot;:{&quot;editable&quot;:false}};exitX=0;exitY=0.375;exitDx=0;exitDy=0;exitPerimeter=0;fontSize=9;entryX=1;entryY=0.5;entryDx=0;entryDy=0;entryPerimeter=0;" edge="1" parent="1" source="ven7OCAWEYGcHoB-KmMM-14" target="ven7OCAWEYGcHoB-KmMM-27">
            <mxGeometry x="0.2131" y="-9" width="160" relative="1" as="geometry">
              <mxPoint x="424" y="537" as="sourcePoint" />
              <mxPoint x="168" y="410" as="targetPoint" />
              <mxPoint as="offset" />
            </mxGeometry>
          </mxCell>
        </object>
        <object placeholders="1" c4Name="Oracle Health Appointment Service" c4Type="Container" c4Technology="" c4Description="Provides interface to FHIR appointment resource" label="&lt;b style=&quot;font-size: 9px;&quot;&gt;%c4Name%&lt;/b&gt;&lt;div style=&quot;font-size: 9px;&quot;&gt;[%c4Type%: %c4Technology%]&lt;/div&gt;&lt;br style=&quot;font-size: 9px;&quot;&gt;&lt;div style=&quot;font-size: 9px;&quot;&gt;%c4Description%&lt;/div&gt;" id="ven7OCAWEYGcHoB-KmMM-25">
          <mxCell style="rounded=1;whiteSpace=wrap;html=1;labelBackgroundColor=none;fillColor=#85BBF0;fontColor=#ffffff;align=center;arcSize=10;strokeColor=#78A8D8;metaEdit=1;metaData={&quot;c4Type&quot;:{&quot;editable&quot;:false}};points=[[0.25,0,0],[0.5,0,0],[0.75,0,0],[1,0.25,0],[1,0.5,0],[1,0.75,0],[0.75,1,0],[0.5,1,0],[0.25,1,0],[0,0.75,0],[0,0.5,0],[0,0.25,0]];fontSize=9;" vertex="1" parent="1">
            <mxGeometry x="249" y="705" width="110" height="80" as="geometry" />
          </mxCell>
        </object>
        <object placeholders="1" c4Type="Relationship" c4Technology="https" c4Description="uses" label="&lt;div style=&quot;text-align: left; font-size: 9px;&quot;&gt;&lt;div style=&quot;text-align: center; font-size: 9px;&quot;&gt;&lt;b style=&quot;font-size: 9px;&quot;&gt;%c4Description%&lt;/b&gt;&lt;/div&gt;&lt;div style=&quot;text-align: center; font-size: 9px;&quot;&gt;[%c4Technology%]&lt;/div&gt;&lt;/div&gt;" id="ven7OCAWEYGcHoB-KmMM-26">
          <mxCell style="edgeStyle=none;rounded=0;html=1;jettySize=auto;orthogonalLoop=1;strokeColor=#707070;strokeWidth=2;fontColor=#707070;jumpStyle=none;dashed=1;metaEdit=1;metaData={&quot;c4Type&quot;:{&quot;editable&quot;:false}};fontSize=9;entryX=0;entryY=0.5;entryDx=0;entryDy=0;entryPerimeter=0;exitX=1;exitY=0.5;exitDx=0;exitDy=0;exitPerimeter=0;" edge="1" parent="1" source="ven7OCAWEYGcHoB-KmMM-22" target="ven7OCAWEYGcHoB-KmMM-25">
            <mxGeometry x="-0.5682" width="160" relative="1" as="geometry">
              <mxPoint x="200" y="750" as="sourcePoint" />
              <mxPoint x="210" y="820" as="targetPoint" />
              <mxPoint as="offset" />
            </mxGeometry>
          </mxCell>
        </object>
        <object placeholders="1" c4Name="Twilio" c4Type="Software System" c4Description="3rd Party SMS provider" label="&lt;b style=&quot;font-size: 9px;&quot;&gt;%c4Name%&lt;/b&gt;&lt;div style=&quot;font-size: 9px;&quot;&gt;[%c4Type%]&lt;/div&gt;&lt;br style=&quot;font-size: 9px;&quot;&gt;&lt;div style=&quot;font-size: 9px;&quot;&gt;%c4Description%&lt;/div&gt;" id="ven7OCAWEYGcHoB-KmMM-27">
          <mxCell style="rounded=1;whiteSpace=wrap;html=1;labelBackgroundColor=none;fillColor=#999999;fontColor=#ffffff;align=center;arcSize=10;strokeColor=#8A8A8A;metaEdit=1;metaData={&quot;c4Type&quot;:{&quot;editable&quot;:false}};points=[[0.25,0,0],[0.5,0,0],[0.75,0,0],[1,0.25,0],[1,0.5,0],[1,0.75,0],[0.75,1,0],[0.5,1,0],[0.25,1,0],[0,0.75,0],[0,0.5,0],[0,0.25,0]];fontSize=9;" vertex="1" parent="1">
            <mxGeometry x="64" y="515" width="106" height="70" as="geometry" />
          </mxCell>
        </object>
        <object placeholders="1" c4Type="Relationship" c4Technology="https" c4Description="uses" label="&lt;div style=&quot;text-align: left; font-size: 9px;&quot;&gt;&lt;div style=&quot;text-align: center; font-size: 9px;&quot;&gt;&lt;b style=&quot;font-size: 9px;&quot;&gt;%c4Description%&lt;/b&gt;&lt;/div&gt;&lt;div style=&quot;text-align: center; font-size: 9px;&quot;&gt;[%c4Technology%]&lt;/div&gt;&lt;/div&gt;" id="ven7OCAWEYGcHoB-KmMM-28">
          <mxCell style="edgeStyle=none;rounded=0;html=1;entryX=0.5;entryY=1;jettySize=auto;orthogonalLoop=1;strokeColor=#707070;strokeWidth=2;fontColor=#707070;jumpStyle=none;dashed=1;metaEdit=1;metaData={&quot;c4Type&quot;:{&quot;editable&quot;:false}};entryDx=0;entryDy=0;entryPerimeter=0;fontSize=9;startArrow=classic;startFill=1;" edge="1" parent="1" source="ven7OCAWEYGcHoB-KmMM-22" target="ven7OCAWEYGcHoB-KmMM-27">
            <mxGeometry width="160" relative="1" as="geometry">
              <mxPoint x="454" y="637" as="sourcePoint" />
              <mxPoint x="614" y="637" as="targetPoint" />
            </mxGeometry>
          </mxCell>
        </object>
        <object placeholders="1" c4Type="Relationship" c4Technology="https" c4Description="invokes" label="&lt;div style=&quot;text-align: left; font-size: 9px;&quot;&gt;&lt;div style=&quot;text-align: center; font-size: 9px;&quot;&gt;&lt;b style=&quot;font-size: 9px;&quot;&gt;%c4Description%&lt;/b&gt;&lt;/div&gt;&lt;div style=&quot;text-align: center; font-size: 9px;&quot;&gt;[%c4Technology%]&lt;/div&gt;&lt;/div&gt;" id="ven7OCAWEYGcHoB-KmMM-29">
          <mxCell style="edgeStyle=none;rounded=0;html=1;jettySize=auto;orthogonalLoop=1;strokeColor=#707070;strokeWidth=2;fontColor=#707070;jumpStyle=none;dashed=1;metaEdit=1;metaData={&quot;c4Type&quot;:{&quot;editable&quot;:false}};exitX=0.75;exitY=0;exitDx=0;exitDy=0;exitPerimeter=0;entryX=0;entryY=0.75;entryDx=0;entryDy=0;entryPerimeter=0;fontSize=9;" edge="1" parent="1" source="ven7OCAWEYGcHoB-KmMM-22" target="ven7OCAWEYGcHoB-KmMM-14">
            <mxGeometry x="0.1462" y="20" width="160" relative="1" as="geometry">
              <mxPoint x="502" y="627" as="sourcePoint" />
              <mxPoint x="614" y="637" as="targetPoint" />
              <mxPoint as="offset" />
            </mxGeometry>
          </mxCell>
        </object>
        <object placeholders="1" c4Type="Relationship" c4Technology="https" c4Description="uses" label="&lt;div style=&quot;text-align: left; font-size: 9px;&quot;&gt;&lt;div style=&quot;text-align: center; font-size: 9px;&quot;&gt;&lt;b style=&quot;font-size: 9px;&quot;&gt;%c4Description%&lt;/b&gt;&lt;/div&gt;&lt;div style=&quot;text-align: center; font-size: 9px;&quot;&gt;[%c4Technology%]&lt;/div&gt;&lt;/div&gt;" id="ven7OCAWEYGcHoB-KmMM-30">
          <mxCell style="edgeStyle=none;rounded=0;html=1;jettySize=auto;orthogonalLoop=1;strokeColor=#707070;strokeWidth=2;fontColor=#707070;jumpStyle=none;dashed=1;metaEdit=1;metaData={&quot;c4Type&quot;:{&quot;editable&quot;:false}};exitX=0.013;exitY=1.006;exitDx=0;exitDy=0;exitPerimeter=0;fontSize=9;" edge="1" parent="1" source="ven7OCAWEYGcHoB-KmMM-12" target="ven7OCAWEYGcHoB-KmMM-14">
            <mxGeometry x="-0.375" width="160" relative="1" as="geometry">
              <mxPoint x="556" y="377.0000000000001" as="sourcePoint" />
              <mxPoint x="556" y="424" as="targetPoint" />
              <mxPoint as="offset" />
              <Array as="points" />
            </mxGeometry>
          </mxCell>
        </object>
        <object placeholders="1" c4Type="Database" c4Technology="DynamoDB" c4Description="URL Shortener Data Store" label="%c4Type%&lt;div style=&quot;font-size: 9px;&quot;&gt;[Container:&amp;nbsp;%c4Technology%]&lt;/div&gt;&lt;br style=&quot;font-size: 9px;&quot;&gt;&lt;div style=&quot;font-size: 9px;&quot;&gt;%c4Description%&lt;/div&gt;" id="ven7OCAWEYGcHoB-KmMM-31">
          <mxCell style="shape=cylinder;whiteSpace=wrap;html=1;boundedLbl=1;rounded=0;labelBackgroundColor=none;fillColor=#438DD5;fontSize=9;fontColor=#ffffff;align=center;strokeColor=#3C7FC0;metaEdit=1;points=[[0.5,0,0],[1,0.25,0],[1,0.5,0],[1,0.75,0],[0.5,1,0],[0,0.75,0],[0,0.5,0],[0,0.25,0]];metaData={&quot;c4Type&quot;:{&quot;editable&quot;:false}};" vertex="1" parent="1">
            <mxGeometry x="264" y="380" width="106" height="73" as="geometry" />
          </mxCell>
        </object>
        <object placeholders="1" c4Type="Relationship" c4Technology="dynamoAPI" c4Description="Create, Read" label="&lt;div style=&quot;text-align: left; font-size: 9px;&quot;&gt;&lt;div style=&quot;text-align: center; font-size: 9px;&quot;&gt;&lt;b style=&quot;font-size: 9px;&quot;&gt;%c4Description%&lt;/b&gt;&lt;/div&gt;&lt;div style=&quot;text-align: center; font-size: 9px;&quot;&gt;[%c4Technology%]&lt;/div&gt;&lt;/div&gt;" id="ven7OCAWEYGcHoB-KmMM-32">
          <mxCell style="edgeStyle=none;rounded=0;html=1;jettySize=auto;orthogonalLoop=1;strokeColor=#707070;strokeWidth=2;fontColor=#707070;jumpStyle=none;dashed=1;metaEdit=1;metaData={&quot;c4Type&quot;:{&quot;editable&quot;:false}};fontSize=9;" edge="1" parent="1" source="ven7OCAWEYGcHoB-KmMM-14" target="ven7OCAWEYGcHoB-KmMM-31">
            <mxGeometry x="-0.1758" y="1" width="160" relative="1" as="geometry">
              <mxPoint x="652" y="430" as="sourcePoint" />
              <mxPoint x="661.448717948718" y="497" as="targetPoint" />
              <mxPoint as="offset" />
            </mxGeometry>
          </mxCell>
        </object>
        <object placeholders="1" c4Type="Relationship" c4Technology="https" c4Description="uses" label="&lt;div style=&quot;text-align: left; font-size: 9px;&quot;&gt;&lt;div style=&quot;text-align: center; font-size: 9px;&quot;&gt;&lt;b style=&quot;font-size: 9px;&quot;&gt;%c4Description%&lt;/b&gt;&lt;/div&gt;&lt;div style=&quot;text-align: center; font-size: 9px;&quot;&gt;[%c4Technology%]&lt;/div&gt;&lt;/div&gt;" id="ven7OCAWEYGcHoB-KmMM-35">
          <mxCell style="edgeStyle=none;rounded=0;html=1;jettySize=auto;orthogonalLoop=1;strokeColor=#707070;strokeWidth=2;fontColor=#707070;jumpStyle=none;dashed=1;metaEdit=1;metaData={&quot;c4Type&quot;:{&quot;editable&quot;:false}};fontSize=9;entryX=0;entryY=0.25;entryDx=0;entryDy=0;entryPerimeter=0;" edge="1" parent="1" target="ven7OCAWEYGcHoB-KmMM-37">
            <mxGeometry x="0.3229" y="-1" width="160" relative="1" as="geometry">
              <mxPoint x="580" y="290" as="sourcePoint" />
              <mxPoint x="650" y="290" as="targetPoint" />
              <mxPoint x="1" as="offset" />
            </mxGeometry>
          </mxCell>
        </object>
        <object placeholders="1" c4Name="BTSSS" c4Type="Container" c4Technology="MS Dynamics" c4Description="Used to pass in and process travel claims" label="&lt;b style=&quot;font-size: 9px;&quot;&gt;%c4Name%&lt;/b&gt;&lt;div style=&quot;font-size: 9px;&quot;&gt;[%c4Type%: %c4Technology%]&lt;/div&gt;&lt;br style=&quot;font-size: 9px;&quot;&gt;&lt;div style=&quot;font-size: 9px;&quot;&gt;%c4Description%&lt;/div&gt;" id="ven7OCAWEYGcHoB-KmMM-37">
          <mxCell style="rounded=1;whiteSpace=wrap;html=1;labelBackgroundColor=none;fillColor=#85BBF0;fontColor=#ffffff;align=center;arcSize=10;strokeColor=#78A8D8;metaEdit=1;metaData={&quot;c4Type&quot;:{&quot;editable&quot;:false}};points=[[0.25,0,0],[0.5,0,0],[0.75,0,0],[1,0.25,0],[1,0.5,0],[1,0.75,0],[0.75,1,0],[0.5,1,0],[0.25,1,0],[0,0.75,0],[0,0.5,0],[0,0.25,0]];fontSize=9;" vertex="1" parent="1">
            <mxGeometry x="659" y="270" width="130" height="70" as="geometry" />
          </mxCell>
        </object>
        <object placeholders="1" c4Name="VA Notify" c4Type="Container" c4Technology="Python / Django" c4Description="Passthrough system for sending notifications, has notification templates" label="&lt;b style=&quot;font-size: 9px;&quot;&gt;%c4Name%&lt;/b&gt;&lt;div style=&quot;font-size: 9px;&quot;&gt;[%c4Type%: %c4Technology%]&lt;/div&gt;&lt;br style=&quot;font-size: 9px;&quot;&gt;&lt;div style=&quot;font-size: 9px;&quot;&gt;%c4Description%&lt;/div&gt;" id="ven7OCAWEYGcHoB-KmMM-38">
          <mxCell style="rounded=1;whiteSpace=wrap;html=1;labelBackgroundColor=none;fillColor=#85BBF0;fontColor=#ffffff;align=center;arcSize=10;strokeColor=#78A8D8;metaEdit=1;metaData={&quot;c4Type&quot;:{&quot;editable&quot;:false}};points=[[0.25,0,0],[0.5,0,0],[0.75,0,0],[1,0.25,0],[1,0.5,0],[1,0.75,0],[0.75,1,0],[0.5,1,0],[0.25,1,0],[0,0.75,0],[0,0.5,0],[0,0.25,0]];fontSize=9;" vertex="1" parent="1">
            <mxGeometry x="658.5" y="370" width="110" height="80" as="geometry" />
          </mxCell>
        </object>
        <object placeholders="1" c4Type="Relationship" c4Technology="https" c4Description="uses" label="&lt;div style=&quot;text-align: left; font-size: 9px;&quot;&gt;&lt;div style=&quot;text-align: center; font-size: 9px;&quot;&gt;&lt;b style=&quot;font-size: 9px;&quot;&gt;%c4Description%&lt;/b&gt;&lt;/div&gt;&lt;div style=&quot;text-align: center; font-size: 9px;&quot;&gt;[%c4Technology%]&lt;/div&gt;&lt;/div&gt;" id="ven7OCAWEYGcHoB-KmMM-39">
          <mxCell style="edgeStyle=none;rounded=0;html=1;jettySize=auto;orthogonalLoop=1;strokeColor=#707070;strokeWidth=2;fontColor=#707070;jumpStyle=none;dashed=1;metaEdit=1;metaData={&quot;c4Type&quot;:{&quot;editable&quot;:false}};fontSize=9;entryX=0;entryY=0.5;entryDx=0;entryDy=0;entryPerimeter=0;" edge="1" parent="1" target="ven7OCAWEYGcHoB-KmMM-38">
            <mxGeometry x="0.3229" y="-1" width="160" relative="1" as="geometry">
              <mxPoint x="581" y="310" as="sourcePoint" />
              <mxPoint x="668.71" y="445" as="targetPoint" />
              <mxPoint x="1" as="offset" />
            </mxGeometry>
          </mxCell>
        </object>
        <mxCell id="ven7OCAWEYGcHoB-KmMM-44" style="edgeStyle=orthogonalEdgeStyle;rounded=0;orthogonalLoop=1;jettySize=auto;html=1;entryX=0;entryY=0.5;entryDx=0;entryDy=0;entryPerimeter=0;dashed=1;strokeColor=#707070;strokeWidth=2;align=center;verticalAlign=middle;fontFamily=Helvetica;fontSize=9;fontColor=#707070;labelBackgroundColor=default;jumpStyle=none;endArrow=classic;" edge="1" parent="1" source="ven7OCAWEYGcHoB-KmMM-1" target="ven7OCAWEYGcHoB-KmMM-27">
          <mxGeometry relative="1" as="geometry">
            <Array as="points">
              <mxPoint x="715" y="670" />
              <mxPoint x="30" y="670" />
              <mxPoint x="30" y="550" />
            </Array>
          </mxGeometry>
        </mxCell>
        <mxCell id="ven7OCAWEYGcHoB-KmMM-46" value="&lt;div&gt;uses&lt;/div&gt;&lt;div&gt;[https]&lt;br&gt;&lt;/div&gt;" style="edgeLabel;html=1;align=center;verticalAlign=middle;resizable=0;points=[];rounded=0;dashed=1;strokeColor=#707070;strokeWidth=2;fontFamily=Helvetica;fontSize=9;fontColor=#707070;labelBackgroundColor=default;" vertex="1" connectable="0" parent="ven7OCAWEYGcHoB-KmMM-44">
          <mxGeometry x="0.0543" y="1" relative="1" as="geometry">
            <mxPoint x="83" as="offset" />
          </mxGeometry>
        </mxCell>
      </root>
    </mxGraphModel>
  </diagram>
  <diagram name="CHIP-Component-Diagram" id="hKUxfsoxaP-PS7_2_EE4">
    <mxGraphModel dx="1242" dy="789" grid="1" gridSize="10" guides="1" tooltips="1" connect="1" arrows="1" fold="1" page="1" pageScale="1" pageWidth="850" pageHeight="1100" math="0" shadow="0">
      <root>
        <mxCell id="bq_Tjl5DXfXFqc5ah46k-0" />
        <mxCell id="bq_Tjl5DXfXFqc5ah46k-1" parent="bq_Tjl5DXfXFqc5ah46k-0" />
        <mxCell id="qF7ay8xb9gY_R86L2vVn-1" value="" style="group;fontSize=16;" parent="bq_Tjl5DXfXFqc5ah46k-1" vertex="1" connectable="0">
          <mxGeometry x="50" y="40" width="770" height="750" as="geometry" />
        </mxCell>
        <mxCell id="qF7ay8xb9gY_R86L2vVn-2" value="" style="rounded=0;whiteSpace=wrap;html=1;dashed=1;" parent="qF7ay8xb9gY_R86L2vVn-1" vertex="1">
          <mxGeometry x="250" y="60" width="250" height="690" as="geometry" />
        </mxCell>
        <mxCell id="qF7ay8xb9gY_R86L2vVn-3" value="&lt;font style=&quot;font-size: 18px&quot;&gt;Component Diagram for Check In Experience - CHIP&lt;/font&gt;" style="text;html=1;strokeColor=none;fillColor=none;align=left;verticalAlign=middle;whiteSpace=wrap;rounded=0;dashed=1;" parent="qF7ay8xb9gY_R86L2vVn-1" vertex="1">
          <mxGeometry width="540" height="40" as="geometry" />
        </mxCell>
        <mxCell id="qF7ay8xb9gY_R86L2vVn-4" value="Check In integration Point (CHIP)&amp;nbsp;" style="text;html=1;strokeColor=none;fillColor=none;align=center;verticalAlign=middle;whiteSpace=wrap;rounded=0;dashed=1;fontSize=16;" parent="qF7ay8xb9gY_R86L2vVn-1" vertex="1">
          <mxGeometry x="250" y="70" width="250.38" height="20" as="geometry" />
        </mxCell>
        <object placeholders="1" c4Name="VETS-API" c4Type="Container" c4Technology="Ruby / Rails / Postgres" c4Description="Provides digital check in functionality via RESTful API" label="&lt;b&gt;%c4Name%&lt;/b&gt;&lt;div&gt;[%c4Type%: %c4Technology%]&lt;/div&gt;&lt;br&gt;&lt;div&gt;%c4Description%&lt;/div&gt;" id="qF7ay8xb9gY_R86L2vVn-5">
          <mxCell style="rounded=1;whiteSpace=wrap;html=1;labelBackgroundColor=none;fillColor=#85BBF0;fontColor=#ffffff;align=center;arcSize=10;strokeColor=#78A8D8;metaEdit=1;metaData={&quot;c4Type&quot;:{&quot;editable&quot;:false}};points=[[0.25,0,0],[0.5,0,0],[0.75,0,0],[1,0.25,0],[1,0.5,0],[1,0.75,0],[0.75,1,0],[0.5,1,0],[0.25,1,0],[0,0.75,0],[0,0.5,0],[0,0.25,0]];" parent="qF7ay8xb9gY_R86L2vVn-1" vertex="1">
            <mxGeometry x="610" y="395" width="160" height="110.00000000000001" as="geometry" />
          </mxCell>
        </object>
        <object placeholders="1" c4Name="LoROTA API" c4Type="Container" c4Technology="AWS Lambdas/nodeJS" c4Description="Provides secure temporary cache to share data between applications" label="&lt;b&gt;%c4Name%&lt;/b&gt;&lt;div&gt;[%c4Type%: %c4Technology%]&lt;/div&gt;&lt;br&gt;&lt;div&gt;%c4Description%&lt;/div&gt;" id="qF7ay8xb9gY_R86L2vVn-6">
          <mxCell style="rounded=1;whiteSpace=wrap;html=1;labelBackgroundColor=none;fillColor=#85BBF0;fontColor=#ffffff;align=center;arcSize=10;strokeColor=#78A8D8;metaEdit=1;metaData={&quot;c4Type&quot;:{&quot;editable&quot;:false}};points=[[0.25,0,0],[0.5,0,0],[0.75,0,0],[1,0.25,0],[1,0.5,0],[1,0.75,0],[0.75,1,0],[0.5,1,0],[0.25,1,0],[0,0.75,0],[0,0.5,0],[0,0.25,0]];" parent="qF7ay8xb9gY_R86L2vVn-1" vertex="1">
            <mxGeometry x="11" y="460" width="160" height="110.00000000000001" as="geometry" />
          </mxCell>
        </object>
        <object placeholders="1" c4Type="Relationship" c4Technology="https" c4Description="POST" label="&lt;div style=&quot;text-align: left&quot;&gt;&lt;div style=&quot;text-align: center&quot;&gt;&lt;b&gt;%c4Description%&lt;/b&gt;&lt;/div&gt;&lt;div style=&quot;text-align: center&quot;&gt;[%c4Technology%]&lt;/div&gt;&lt;/div&gt;" id="qF7ay8xb9gY_R86L2vVn-7">
          <mxCell style="edgeStyle=none;rounded=0;html=1;jettySize=auto;orthogonalLoop=1;strokeColor=#707070;strokeWidth=2;fontColor=#707070;jumpStyle=none;dashed=1;metaEdit=1;metaData={&quot;c4Type&quot;:{&quot;editable&quot;:false}};exitX=0;exitY=0.25;exitDx=0;exitDy=0;exitPerimeter=0;entryX=1;entryY=0.5;entryDx=0;entryDy=0;entryPerimeter=0;" parent="qF7ay8xb9gY_R86L2vVn-1" source="qF7ay8xb9gY_R86L2vVn-5" target="qF7ay8xb9gY_R86L2vVn-13" edge="1">
            <mxGeometry x="-0.4021" y="11" width="160" relative="1" as="geometry">
              <mxPoint x="397" y="486" as="sourcePoint" />
              <mxPoint x="700" y="490" as="targetPoint" />
              <mxPoint as="offset" />
            </mxGeometry>
          </mxCell>
        </object>
        <object placeholders="1" c4Type="Relationship" c4Technology="https" c4Description="POST" label="&lt;div style=&quot;text-align: left&quot;&gt;&lt;div style=&quot;text-align: center&quot;&gt;&lt;b&gt;%c4Description%&lt;/b&gt;&lt;/div&gt;&lt;div style=&quot;text-align: center&quot;&gt;[%c4Technology%]&lt;/div&gt;&lt;/div&gt;" id="qF7ay8xb9gY_R86L2vVn-8">
          <mxCell style="edgeStyle=none;rounded=0;html=1;entryX=1;entryY=0.5;jettySize=auto;orthogonalLoop=1;strokeColor=#707070;strokeWidth=2;fontColor=#707070;jumpStyle=none;dashed=1;metaEdit=1;metaData={&quot;c4Type&quot;:{&quot;editable&quot;:false}};entryDx=0;entryDy=0;entryPerimeter=0;exitX=0;exitY=0.5;exitDx=0;exitDy=0;exitPerimeter=0;" parent="qF7ay8xb9gY_R86L2vVn-1" source="qF7ay8xb9gY_R86L2vVn-12" target="qF7ay8xb9gY_R86L2vVn-6" edge="1">
            <mxGeometry width="160" relative="1" as="geometry">
              <mxPoint x="100" y="750" as="sourcePoint" />
              <mxPoint x="807" y="440" as="targetPoint" />
            </mxGeometry>
          </mxCell>
        </object>
        <object placeholders="1" c4Name="Twilio" c4Type="Software System" c4Description="3rd Party SMS provider" label="&lt;b&gt;%c4Name%&lt;/b&gt;&lt;div&gt;[%c4Type%]&lt;/div&gt;&lt;br&gt;&lt;div&gt;%c4Description%&lt;/div&gt;" id="qF7ay8xb9gY_R86L2vVn-9">
          <mxCell style="rounded=1;whiteSpace=wrap;html=1;labelBackgroundColor=none;fillColor=#999999;fontColor=#ffffff;align=center;arcSize=10;strokeColor=#8A8A8A;metaEdit=1;metaData={&quot;c4Type&quot;:{&quot;editable&quot;:false}};points=[[0.25,0,0],[0.5,0,0],[0.75,0,0],[1,0.25,0],[1,0.5,0],[1,0.75,0],[0.75,1,0],[0.5,1,0],[0.25,1,0],[0,0.75,0],[0,0.5,0],[0,0.25,0]];" parent="qF7ay8xb9gY_R86L2vVn-1" vertex="1">
            <mxGeometry x="11" y="280" width="160" height="110.00000000000001" as="geometry" />
          </mxCell>
        </object>
        <object placeholders="1" c4Name="initiateCheckIn" c4Type="Component" c4Technology="NodeJS Lambda" c4Description="Receives data from VeText, validates, sends payload to LoROTA and sends SMS to Veteran&#xa;&#xa;POST /initiate-checkin" label="&lt;b&gt;%c4Name%&lt;/b&gt;&lt;div&gt;[%c4Type%: %c4Technology%]&lt;/div&gt;&lt;br&gt;&lt;div&gt;%c4Description%&lt;/div&gt;" id="qF7ay8xb9gY_R86L2vVn-10">
          <mxCell style="rounded=1;whiteSpace=wrap;html=1;labelBackgroundColor=none;fillColor=#438DD5;fontColor=#ffffff;align=center;arcSize=10;strokeColor=#3C7FC0;metaEdit=1;metaData={&quot;c4Type&quot;:{&quot;editable&quot;:false}};points=[[0.25,0,0],[0.5,0,0],[0.75,0,0],[1,0.25,0],[1,0.5,0],[1,0.75,0],[0.75,1,0],[0.5,1,0],[0.25,1,0],[0,0.75,0],[0,0.5,0],[0,0.25,0]];" parent="qF7ay8xb9gY_R86L2vVn-1" vertex="1">
            <mxGeometry x="270" y="100" width="208" height="140" as="geometry" />
          </mxCell>
        </object>
        <object placeholders="1" c4Type="Relationship" c4Technology="https" c4Description="POST" label="&lt;div style=&quot;text-align: left&quot;&gt;&lt;div style=&quot;text-align: center&quot;&gt;&lt;b&gt;%c4Description%&lt;/b&gt;&lt;/div&gt;&lt;div style=&quot;text-align: center&quot;&gt;[%c4Technology%]&lt;/div&gt;&lt;/div&gt;" id="qF7ay8xb9gY_R86L2vVn-11">
          <mxCell style="edgeStyle=none;rounded=0;html=1;jettySize=auto;orthogonalLoop=1;strokeColor=#707070;strokeWidth=2;fontColor=#707070;jumpStyle=none;dashed=1;metaEdit=1;metaData={&quot;c4Type&quot;:{&quot;editable&quot;:false}};exitX=0;exitY=0.75;exitDx=0;exitDy=0;exitPerimeter=0;" parent="qF7ay8xb9gY_R86L2vVn-1" source="qF7ay8xb9gY_R86L2vVn-10" target="qF7ay8xb9gY_R86L2vVn-9" edge="1">
            <mxGeometry x="0.526" y="-11" width="160" relative="1" as="geometry">
              <mxPoint x="290" y="440" as="sourcePoint" />
              <mxPoint x="100" y="540" as="targetPoint" />
              <mxPoint as="offset" />
            </mxGeometry>
          </mxCell>
        </object>
        <object placeholders="1" c4Name="refreshAppointments" c4Type="Component" c4Technology="NodeJS Lambda" c4Description="Provides functionality to fetch the latest appointment data from VistA and send to Lorota&#xa;&#xa;POST /refresh-appointments/{UUID}" label="&lt;b&gt;%c4Name%&lt;/b&gt;&lt;div&gt;[%c4Type%: %c4Technology%]&lt;/div&gt;&lt;br&gt;&lt;div&gt;%c4Description%&lt;/div&gt;" id="qF7ay8xb9gY_R86L2vVn-12">
          <mxCell style="rounded=1;whiteSpace=wrap;html=1;labelBackgroundColor=none;fillColor=#438DD5;fontColor=#ffffff;align=center;arcSize=10;strokeColor=#3C7FC0;metaEdit=1;metaData={&quot;c4Type&quot;:{&quot;editable&quot;:false}};points=[[0.25,0,0],[0.5,0,0],[0.75,0,0],[1,0.25,0],[1,0.5,0],[1,0.75,0],[0.75,1,0],[0.5,1,0],[0.25,1,0],[0,0.75,0],[0,0.5,0],[0,0.25,0]];" parent="qF7ay8xb9gY_R86L2vVn-1" vertex="1">
            <mxGeometry x="270" y="420" width="208" height="140" as="geometry" />
          </mxCell>
        </object>
        <object placeholders="1" c4Name="token" c4Type="Component" c4Technology="NodeJS Lambda" c4Description="Authenticates application API KEY and returns an Access Token&#xa;&#xa;POST /token " label="&lt;b&gt;%c4Name%&lt;/b&gt;&lt;div&gt;[%c4Type%: %c4Technology%]&lt;/div&gt;&lt;br&gt;&lt;div&gt;%c4Description%&lt;/div&gt;" id="qF7ay8xb9gY_R86L2vVn-13">
          <mxCell style="rounded=1;whiteSpace=wrap;html=1;labelBackgroundColor=none;fillColor=#438DD5;fontColor=#ffffff;align=center;arcSize=10;strokeColor=#3C7FC0;metaEdit=1;metaData={&quot;c4Type&quot;:{&quot;editable&quot;:false}};points=[[0.25,0,0],[0.5,0,0],[0.75,0,0],[1,0.25,0],[1,0.5,0],[1,0.75,0],[0.75,1,0],[0.5,1,0],[0.25,1,0],[0,0.75,0],[0,0.5,0],[0,0.25,0]];" parent="qF7ay8xb9gY_R86L2vVn-1" vertex="1">
            <mxGeometry x="270" y="260" width="208" height="140" as="geometry" />
          </mxCell>
        </object>
        <object placeholders="1" c4Name="checkIn" c4Type="Component" c4Technology="NodeJS Lambda" c4Description="Provides endpoint and functionality to check a Veteran in to an appointment&#xa;&#xa;POST /actions/check-in/{UUID}" label="&lt;b&gt;%c4Name%&lt;/b&gt;&lt;div&gt;[%c4Type%: %c4Technology%]&lt;/div&gt;&lt;br&gt;&lt;div&gt;%c4Description%&lt;/div&gt;" id="qF7ay8xb9gY_R86L2vVn-14">
          <mxCell style="rounded=1;whiteSpace=wrap;html=1;labelBackgroundColor=none;fillColor=#438DD5;fontColor=#ffffff;align=center;arcSize=10;strokeColor=#3C7FC0;metaEdit=1;metaData={&quot;c4Type&quot;:{&quot;editable&quot;:false}};points=[[0.25,0,0],[0.5,0,0],[0.75,0,0],[1,0.25,0],[1,0.5,0],[1,0.75,0],[0.75,1,0],[0.5,1,0],[0.25,1,0],[0,0.75,0],[0,0.5,0],[0,0.25,0]];" parent="qF7ay8xb9gY_R86L2vVn-1" vertex="1">
            <mxGeometry x="270" y="580" width="208" height="140" as="geometry" />
          </mxCell>
        </object>
        <object placeholders="1" c4Name="VA On-Prem API and Datastore" c4Type="Software System" c4Description="Provides functionality for accessing legacy VistA systems and SMS management" label="&lt;b&gt;%c4Name%&lt;/b&gt;&lt;div&gt;[%c4Type%]&lt;/div&gt;&lt;br&gt;&lt;div&gt;%c4Description%&lt;/div&gt;" id="qF7ay8xb9gY_R86L2vVn-15">
          <mxCell style="rounded=1;whiteSpace=wrap;html=1;labelBackgroundColor=none;fillColor=#1168BD;fontColor=#ffffff;align=center;arcSize=10;strokeColor=#1168BD;metaEdit=1;metaData={&quot;c4Type&quot;:{&quot;editable&quot;:false}};points=[[0.25,0,0],[0.5,0,0],[0.75,0,0],[1,0.25,0],[1,0.5,0],[1,0.75,0],[0.75,1,0],[0.5,1,0],[0.25,1,0],[0,0.75,0],[0,0.5,0],[0,0.25,0]];dashed=1;" parent="qF7ay8xb9gY_R86L2vVn-1" vertex="1">
            <mxGeometry y="100" width="182" height="120" as="geometry" />
          </mxCell>
        </object>
        <object placeholders="1" c4Type="Relationship" c4Technology="https" c4Description="POST" label="&lt;div style=&quot;text-align: left&quot;&gt;&lt;div style=&quot;text-align: center&quot;&gt;&lt;b&gt;%c4Description%&lt;/b&gt;&lt;/div&gt;&lt;div style=&quot;text-align: center&quot;&gt;[%c4Technology%]&lt;/div&gt;&lt;/div&gt;" id="qF7ay8xb9gY_R86L2vVn-16">
          <mxCell style="edgeStyle=none;rounded=0;html=1;jettySize=auto;orthogonalLoop=1;strokeColor=#707070;strokeWidth=2;fontColor=#707070;jumpStyle=none;dashed=1;metaEdit=1;metaData={&quot;c4Type&quot;:{&quot;editable&quot;:false}};exitX=1.005;exitY=0.575;exitDx=0;exitDy=0;exitPerimeter=0;entryX=0;entryY=0.5;entryDx=0;entryDy=0;entryPerimeter=0;" parent="qF7ay8xb9gY_R86L2vVn-1" source="qF7ay8xb9gY_R86L2vVn-15" target="qF7ay8xb9gY_R86L2vVn-13" edge="1">
            <mxGeometry x="-0.5386" y="3" width="160" relative="1" as="geometry">
              <mxPoint x="300" y="380" as="sourcePoint" />
              <mxPoint x="460" y="380" as="targetPoint" />
              <mxPoint as="offset" />
            </mxGeometry>
          </mxCell>
        </object>
        <object placeholders="1" c4Type="Relationship" c4Technology="https" c4Description="POST" label="&lt;div style=&quot;text-align: left&quot;&gt;&lt;div style=&quot;text-align: center&quot;&gt;&lt;b&gt;%c4Description%&lt;/b&gt;&lt;/div&gt;&lt;div style=&quot;text-align: center&quot;&gt;[%c4Technology%]&lt;/div&gt;&lt;/div&gt;" id="qF7ay8xb9gY_R86L2vVn-17">
          <mxCell style="edgeStyle=none;rounded=0;html=1;entryX=0.963;entryY=0;jettySize=auto;orthogonalLoop=1;strokeColor=#707070;strokeWidth=2;fontColor=#707070;jumpStyle=none;dashed=1;metaEdit=1;metaData={&quot;c4Type&quot;:{&quot;editable&quot;:false}};exitX=0.006;exitY=0.958;exitDx=0;exitDy=0;exitPerimeter=0;entryDx=0;entryDy=0;entryPerimeter=0;" parent="qF7ay8xb9gY_R86L2vVn-1" source="qF7ay8xb9gY_R86L2vVn-10" target="qF7ay8xb9gY_R86L2vVn-6" edge="1">
            <mxGeometry x="0.4591" y="14" width="160" relative="1" as="geometry">
              <mxPoint x="300" y="470" as="sourcePoint" />
              <mxPoint x="460" y="470" as="targetPoint" />
              <mxPoint y="1" as="offset" />
            </mxGeometry>
          </mxCell>
        </object>
        <object placeholders="1" c4Type="Relationship" c4Technology="https" c4Description="POST" label="&lt;div style=&quot;text-align: left&quot;&gt;&lt;div style=&quot;text-align: center&quot;&gt;&lt;b&gt;%c4Description%&lt;/b&gt;&lt;/div&gt;&lt;div style=&quot;text-align: center&quot;&gt;[%c4Technology%]&lt;/div&gt;&lt;/div&gt;" id="qF7ay8xb9gY_R86L2vVn-18">
          <mxCell style="edgeStyle=none;rounded=0;html=1;entryX=1;entryY=0.5;jettySize=auto;orthogonalLoop=1;strokeColor=#707070;strokeWidth=2;fontColor=#707070;jumpStyle=none;dashed=1;metaEdit=1;metaData={&quot;c4Type&quot;:{&quot;editable&quot;:false}};exitX=0;exitY=0.5;exitDx=0;exitDy=0;exitPerimeter=0;entryDx=0;entryDy=0;entryPerimeter=0;" parent="qF7ay8xb9gY_R86L2vVn-1" source="qF7ay8xb9gY_R86L2vVn-5" target="qF7ay8xb9gY_R86L2vVn-12" edge="1">
            <mxGeometry x="-0.3724" y="-6" width="160" relative="1" as="geometry">
              <mxPoint x="300" y="470" as="sourcePoint" />
              <mxPoint x="460" y="470" as="targetPoint" />
              <mxPoint as="offset" />
            </mxGeometry>
          </mxCell>
        </object>
        <object placeholders="1" c4Type="Relationship" c4Technology="https" c4Description="POST" label="&lt;div style=&quot;text-align: left&quot;&gt;&lt;div style=&quot;text-align: center&quot;&gt;&lt;b&gt;%c4Description%&lt;/b&gt;&lt;/div&gt;&lt;div style=&quot;text-align: center&quot;&gt;[%c4Technology%]&lt;/div&gt;&lt;/div&gt;" id="qF7ay8xb9gY_R86L2vVn-19">
          <mxCell style="edgeStyle=none;rounded=0;html=1;jettySize=auto;orthogonalLoop=1;strokeColor=#707070;strokeWidth=2;fontColor=#707070;jumpStyle=none;dashed=1;metaEdit=1;metaData={&quot;c4Type&quot;:{&quot;editable&quot;:false}};exitX=1;exitY=0.25;exitDx=0;exitDy=0;exitPerimeter=0;entryX=0;entryY=0.25;entryDx=0;entryDy=0;entryPerimeter=0;" parent="qF7ay8xb9gY_R86L2vVn-1" source="qF7ay8xb9gY_R86L2vVn-15" target="qF7ay8xb9gY_R86L2vVn-10" edge="1">
            <mxGeometry x="-0.3558" width="160" relative="1" as="geometry">
              <mxPoint x="438" y="670" as="sourcePoint" />
              <mxPoint x="550" y="680" as="targetPoint" />
              <mxPoint as="offset" />
            </mxGeometry>
          </mxCell>
        </object>
        <object placeholders="1" c4Type="Relationship" c4Technology="https" c4Description="POST" label="&lt;div style=&quot;text-align: left&quot;&gt;&lt;div style=&quot;text-align: center&quot;&gt;&lt;b&gt;%c4Description%&lt;/b&gt;&lt;/div&gt;&lt;div style=&quot;text-align: center&quot;&gt;[%c4Technology%]&lt;/div&gt;&lt;/div&gt;" id="qF7ay8xb9gY_R86L2vVn-20">
          <mxCell style="edgeStyle=none;rounded=0;html=1;entryX=1;entryY=0.5;jettySize=auto;orthogonalLoop=1;strokeColor=#707070;strokeWidth=2;fontColor=#707070;jumpStyle=none;dashed=1;metaEdit=1;metaData={&quot;c4Type&quot;:{&quot;editable&quot;:false}};exitX=0;exitY=0.75;exitDx=0;exitDy=0;exitPerimeter=0;entryDx=0;entryDy=0;entryPerimeter=0;" parent="qF7ay8xb9gY_R86L2vVn-1" source="qF7ay8xb9gY_R86L2vVn-5" target="qF7ay8xb9gY_R86L2vVn-14" edge="1">
            <mxGeometry x="-0.2648" y="4" width="160" relative="1" as="geometry">
              <mxPoint x="580" y="395" as="sourcePoint" />
              <mxPoint x="462" y="460" as="targetPoint" />
              <mxPoint as="offset" />
            </mxGeometry>
          </mxCell>
        </object>
      </root>
    </mxGraphModel>
  </diagram>
</mxfile>
